<svg xmlns="http://www.w3.org/2000/svg" viewBox="0 0 335.56 290.6"><defs><style>.cls-1{fill:#d5c3b8;stroke:#282562;stroke-width:4px;}.cls-1,.cls-5,.cls-9{stroke-miterlimit:10;}.cls-2{fill:#a02932;}.cls-3{fill:#b65d30;}.cls-4{fill:#c3955b;}.cls-5,.cls-9{fill:none;stroke:#02637d;}.cls-5{stroke-width:10px;}.cls-6{fill:#02637d;}.cls-7{font-size:19.58px;font-family:Arial-BoldMT, Arial;font-weight:700;}.cls-10,.cls-7,.cls-8{fill:#231f20;}.cls-8{font-size:10.96px;font-family:Arial-ItalicMT, Arial;font-style:italic;}.cls-9{stroke-width:7px;}</style></defs><g id="Layer_3" data-name="Layer 3"><polygon class="cls-1" points="250.51 2 85.05 2 2.31 145.3 85.05 288.6 250.51 288.6 333.25 145.3 250.51 2"/></g><g id="Layer_5" data-name="Layer 5"><rect class="cls-2" x="32.7" y="126.99" width="85.02" height="66.92" rx="12"/><rect class="cls-3" x="118.92" y="207.81" width="93.47" height="73.57" rx="12"/><rect class="cls-4" x="213.58" y="126.99" width="85.02" height="66.92" rx="12"/><line class="cls-5" x1="102.97" y1="186.28" x2="127.04" y2="208.67"/><polygon class="cls-6" points="114.54 216.11 141.75 222.36 133.56 195.67 114.54 216.11"/><line class="cls-5" x1="191.56" y1="220.49" x2="215.62" y2="198.1"/><polygon class="cls-6" points="222.14 211.11 230.34 184.41 203.12 190.66 222.14 211.11"/><text class="cls-7" transform="translate(87.26 91.77)">FLOWDIAGRAMR</text><text class="cls-8" transform="translate(149.95 20.76)">S = -bSI<tspan x="-5.48" y="13.16">I = bSI - gI</tspan><tspan x="5.18" y="26.31">R = gI</tspan></text><line class="cls-9" x1="169.91" y1="50.34" x2="169.91" y2="59.72"/><polygon class="cls-6" points="160.14 56.87 169.91 73.79 179.68 56.87 160.14 56.87"/><line class="cls-5" x1="165.65" y1="104.06" x2="120.91" y2="130.39"/><polygon class="cls-6" points="117.35 116.29 103.6 140.58 131.51 140.35 117.35 116.29"/><circle class="cls-10" cx="154.78" cy="11.42" r="0.91"/><circle class="cls-10" cx="147.49" cy="24.87" r="0.91"/><circle class="cls-10" cx="159.77" cy="37.94" r="0.91"/></g></svg>